{"title":"Still Waiting UNRATED.2009.720p.BRRip.x264.Feel-Free","uid":6174494,"size":1903318245,"categoryP":"video","categoryS":"hd___movies","magnet":"?xt=urn:btih:b30e568cd142db5cd5739d28acb4e3e274035cf7&amp;dn=Still+Waiting+UNRATED.2009.720p.BRRip.x264.Feel-Free&amp;tr=udp%3A%2F%2Ftracker.openbittorrent.com%3A80&amp;tr=udp%3A%2F%2Fopen.demonii.com%3A1337&amp;tr=udp%3A%2F%2Ftracker.coppersurfer.tk%3A6969&amp;tr=udp%3A%2F%2Fexodus.desync.com%3A6969","seeders":11,"leechers":3,"uploader":"neon","files":-1,"time":1297718876,"description":"Genre:Comedy\nLanguage:English\n &lt;a href=&quot; http://www.imdb.com/title/tt1116186/&quot; rel=&quot;nofollow&quot; target=&quot;_NEW&quot;&gt; http://www.imdb.com/title/tt1116186/&lt;/a&gt;\nSource:UNRATED.BluRay.x264.SEMTEX\n\n\nFormat : MPEG-4\nFormat profile : Base Media\nCodec ID : isom\nFile size : 1.77 GiB\nDuration : 1h 29mn\nOverall bit rate : 2 822 Kbps\n\n\nVideo\nFormat settings, CABAC : Yes\nFormat settings, ReFrames : 3 frames\nCodec ID : avc1\nCodec ID/Info : Advanced Video Coding\nDuration : 1h 29mn\nBit rate mode : Variable\nBit rate : 2 376 Kbps\nMaximum bit rate : 10.1 Mbps\nWidth : 1 280 pixels\nHeight : 720 pixels\nDisplay aspect ratio : 16:9\nFrame rate mode : Constant\nFrame rate : 23.976 fps\nColor space : YUV\nChroma subsampling : 4:2:0\nBit depth : 8 bits\nScan type : Progressive\nBits/(Pixel*Frame) : 0.108\nStream size : 1.49 GiB (84%)\nWriting library : x264\n\n\nAudio\nID : 2\nFormat : AAC\nFormat/Info : Advanced Audio Codec\nFormat version : Version 4\nFormat profile : LC\nFormat settings, SBR : No\nCodec ID : 40\nDuration : 1h 29mn\nBit rate mode : Variable\nBit rate : 441 Kbps\nMaximum bit rate : 548 Kbps\nChannel(s) : 6 channels\nChannel positions : Front: L C R, Side: L R, LFE\nSampling rate : 48.0 KHz\nStream size : 283 MiB (16%)\n\n\nPlot:\nOn the last night of the fiscal quarter, Dennis, Shenanigan's manager, will be promoted to district manager if they have a $9000 day\n","torrent":{"xt":"urn:btih:b30e568cd142db5cd5739d28acb4e3e274035cf7","amp;dn":"Still+Waiting+UNRATED.2009.720p.BRRip.x264.Feel-Free","amp;tr":["udp%3A%2F%2Ftracker.openbittorrent.com%3A80","udp%3A%2F%2Fopen.demonii.com%3A1337","udp%3A%2F%2Ftracker.coppersurfer.tk%3A6969","udp%3A%2F%2Fexodus.desync.com%3A6969"],"infoHash":"b30e568cd142db5cd5739d28acb4e3e274035cf7","infoHashBuffer":{"type":"Buffer","data":[179,14,86,140,209,66,219,92,213,115,157,40,172,180,227,226,116,3,92,247]},"announce":[],"urlList":[]}}